<!DOCTYPE svg PUBLIC "-//W3C//DTD SVG 1.1//EN" "http://www.w3.org/Graphics/SVG/1.1/DTD/svg11.dtd">
<!-- Uploaded to: SVG Repo, www.svgrepo.com, Transformed by: SVG Repo Mixer Tools -->
<svg width="800px" height="800px" viewBox="0 0 72 72" id="emoji" xmlns="http://www.w3.org/2000/svg" fill="#000000">

<g id="SVGRepo_bgCarrier" stroke-width="0"/>

<g id="SVGRepo_tracerCarrier" stroke-linecap="round" stroke-linejoin="round"/>

<g id="SVGRepo_iconCarrier"> <g id="color"> <path fill="#ffffff" stroke="none" stroke-linecap="round" stroke-linejoin="round" stroke-miterlimit="10" stroke-width="2" d="M36,24.6438L29.4165,16V4h-5.5052v12c0,6.0279,4.0037,19.9583,4.0037,19.9583L16,67.9792h20h20L44.0849,35.9583 c0,0,4.0037-13.9304,4.0037-19.9583V4h-5.5052v12L36,24.6438z"/> </g> <g id="hair"/> <g id="skin"/> <g id="skin-shadow"/> <g id="line"> <path fill="none" stroke="#000000" stroke-linecap="round" stroke-linejoin="round" stroke-miterlimit="10" stroke-width="2" d="M36,24.6438L29.4165,16V4h-5.5052v12c0,6.0279,4.0037,19.9583,4.0037,19.9583L16,67.9792h20h20L44.0849,35.9583 c0,0,4.0037-13.9304,4.0037-19.9583V4h-5.5052v12L36,24.6438z"/> <line x1="31.6821" x2="40.3264" y1="35.9583" y2="35.9583" fill="none" stroke="#000000" stroke-linecap="round" stroke-linejoin="round" stroke-miterlimit="10" stroke-width="2"/> </g> </g>

</svg>
